<?xml version="1.0" encoding="UTF-8" standalone="no"?>
<svg width="967px" height="330px" viewBox="0 0 967 330" version="1.1" xmlns="http://www.w3.org/2000/svg">
    <title>Glasses</title>
    <g stroke="none" stroke-width="1" fill="none" fill-rule="evenodd">
      <path d="M416,108 C416,43 314,18 234,18 C115,18 63,30 63,151 C63,219 86,314 209,314 C264,314 329,306 379,232 C398,201 416,149 416,108 L416,108 L416,108 Z M732,20 C633,20 553,43 553,108 C553,132 562,182 581,220 C616,286 671,314 752,314 C877,314 902,250 902,124 C902,45 859,20 732,20 L732,20 L732,20 Z M234,0 C338,0 424,37 483,37 C548,37 620,1 751,1 C800,1 909,17 957,23 C964,24 966,25 966,33 C967,49 967,65 967,82 C967,88 964,90 961,90 C946,90 938,107 935,123 C930,153 924,183 917,212 C895,300 842,330 748,330 C625,330 578,280 535,165 C523,135 522,103 483,103 C454,103 442,133 431,165 C398,250 356,329 214,329 C162,329 87,308 61,246 C49,215 34,139 31,116 C28,101 21,92 7,87 C1,86 0,81 0,76 C0,62 0,40 1,31 C2,21 4,18 15,17 C35,17 157,0 234,0 L234,0 L234,0 Z" id="Shape" fill="#000000"></path>
      <path d="M445.886823,24 L520.113177,24 C526.182228,24 530.662486,27.5906777 530.122732,31.9986316 L518.979434,123.001368 C518.438507,127.418891 514.420342,131 510.004215,131 L455.995785,131 C451.579835,131 447.560321,127.409322 447.020566,123.001368 L435.877268,31.9986316 C435.336342,27.5811093 439.817529,24 445.886823,24 Z" id="Rectangle-1" stroke="#000000" stroke-width="4" fill="#FFFFFF"></path>
    </g>
</svg>
